<?xml version="1.0" encoding="utf-8"?>
<!-- Generator: Adobe Illustrator 16.0.0, SVG Export Plug-In . SVG Version: 6.00 Build 0)  -->
<!DOCTYPE svg PUBLIC "-//W3C//DTD SVG 1.1//EN" "http://www.w3.org/Graphics/SVG/1.1/DTD/svg11.dtd">
<svg version="1.1" xmlns="http://www.w3.org/2000/svg" xmlns:xlink="http://www.w3.org/1999/xlink" x="0px" y="0px"
	 width="1536.187px" height="1024.187px" viewBox="0 0 1536.187 1024.187" enable-background="new 0 0 1536.187 1024.187"
	 xml:space="preserve">
<g id="Capa_6">
</g>
<g id="Capa_1" display="none">
	<g display="inline">
		<path fill-rule="evenodd" clip-rule="evenodd" fill="#FAFAFA" d="M767.594,1024.093c-254.333,0-508.667-0.01-763,0.094
			c-3.749,0.001-4.594-0.845-4.593-4.594c0.101-338.333,0.101-676.667,0-1015C0,0.844,0.845-0.001,4.594,0
			c509,0.098,1018,0.098,1527,0c3.749-0.001,4.594,0.844,4.593,4.593c-0.1,338.333-0.1,676.667,0,1015
			c0.001,3.749-0.844,4.595-4.593,4.594C1276.927,1024.083,1022.261,1024.093,767.594,1024.093z"/>
		<path fill-rule="evenodd" clip-rule="evenodd" fill="#2C2C2C" d="M552.247,492.104c9.263,19.88,22.757,33.425,43.647,38.242
			c10.153,2.341,20.426,2.729,30.543-0.335c11.059-3.35,18.952-10.255,20.339-22.066c1.402-11.939-4.714-20.545-14.585-26.866
			c-12.415-7.951-26.599-11.63-40.094-16.973c-9.713-3.845-19.389-7.744-27.737-14.23c-21.202-16.474-21.655-43.771-1.041-61.056
			c10.526-8.825,23.03-13.002,36.329-14.692c21.324-2.71,41.559,1.221,60.653,11.17c2.829,1.474,4.188,2.657,3.053,6.251
			c-1.972,6.245-3.21,12.721-4.953,19.917c-4.417-8.352-9.842-15.173-17.442-19.815c-16.822-10.277-34.598-11.115-52.353-3.305
			c-17.665,7.772-19.427,28.656-3.87,40.252c8.607,6.415,18.671,9.848,28.625,13.473c15.574,5.673,31.321,10.983,44.588,21.473
			c15.124,11.959,20.82,30.692,13.87,47.992c-5.499,13.688-16.483,21.899-30.015,26.566c-33.795,11.654-64.88,5.437-93.526-15.104
			c-7.622-5.466-7.472-5.583-3.554-13.998C547.216,503.646,549.534,498.214,552.247,492.104z"/>
		<path fill-rule="evenodd" clip-rule="evenodd" fill="#2C2C2C" d="M906.134,377.012c36.674,38.533,73.342,77.072,110.041,115.583
			c1.462,1.533,2.499,3.536,4.589,4.428c1.693-1.842,0.873-4.102,0.783-6.108c-1.03-22.964-0.238-45.937-0.421-68.903
			c-0.111-13.968-0.295-27.931-0.951-41.885c-0.038-0.812-0.39-1.626,0.323-2.325c0.477-0.468,10.664-1.256,11.267-0.844
			c0.987,0.677,0.756,1.731,0.815,2.696c0.245,4.001-0.534,7.949-0.527,11.953c0.064,39.3,0.013,78.601,0.06,117.901
			c0.011,8.808,1.1,17.569,1.442,26.363c0.219,5.602,0.105,5.604-5.475,5.71c-0.992,0.02-2.004-0.104-2.944,0.357
			c-12.634-13.234-25.29-26.446-37.896-39.706c-28.239-29.701-56.453-59.427-84.685-89.136c-0.3-0.316-0.698-0.54-1.613-1.233
			c0,37.781,0,75.004,0,112.227c-0.932,0.3-1.254-3.487-1.259-5.174c-0.102-34.487-0.077-68.977-0.091-103.465
			c-0.01,30.271,0.094,60.543-0.07,90.813c-0.058,10.518,0.33,20.951,2.572,31.241c0.974,3.604-1.871,4.129-5.233,4.189
			c-11.22,0.203-9.162,0.31-8.342-10.625c0.348-4.638,0.622-9.286,0.614-13.957c-0.067-36.825,0.012-73.649-0.073-110.475
			c-0.021-8.811-0.362-17.651-2.589-26.241c-0.728-2.808,0.559-3.21,2.668-3.262C894.804,376.997,900.47,377.211,906.134,377.012z"
			/>
		<path fill-rule="evenodd" clip-rule="evenodd" fill="#2A2A2A" d="M321.825,542.515c-11.084,0-21.407-0.123-31.724,0.079
			c-2.87,0.057-3.887-1.104-4.993-3.511c-6.493-14.136-13.254-28.147-19.801-42.259c-0.992-2.138-2.25-2.736-4.516-2.726
			c-22.993,0.109-45.986,0.15-68.979,0.064c-2.412-0.009-3.504,0.879-4.339,2.918c-5.82,14.216-12.592,28.052-17.183,42.753
			c-0.589,1.888-1.198,2.802-3.289,2.742c-4.479-0.128-8.963-0.04-13.909-0.04c5.159-10.929,10.422-21.355,15.069-32.051
			c19.004-43.735,38.802-87.131,56.601-131.383c1.03-2.562,2.354-2.798,4.706-3.106c5.993-0.784,8.982,1.17,11.75,7.044
			c20.956,44.469,43.562,88.13,65.529,132.105C311.314,524.287,316.192,533.244,321.825,542.515z"/>
		<path fill-rule="evenodd" clip-rule="evenodd" fill="#2C2C2B" d="M1232.028,381.352c12.543,4.535,9.564,1.75,8.473,13.917
			c-0.614,6.854-1.658,13.668-1.526,21.945c-8.286-17.821-22.066-27.257-39.03-31.166c-28.963-6.676-56.003-3.443-76.872,20.635
			c-10.25,11.828-15.547,25.851-17.096,41.545c-2.201,22.303,2.623,42.555,16.521,60.202c11.313,14.364,26.422,22.568,44.613,24.55
			c29.728,3.239,56.164-4.264,78.507-25.274c0.588,1.279,1.09,2.25,1.49,3.261c4.478,11.322,4.568,11.497-6.372,17.469
			c-17.067,9.317-35.385,14.415-54.795,15.895c-19.642,1.498-38.838-0.383-57.327-7.26c-30.128-11.206-49.383-32.25-54.147-64.379
			c-4.205-28.355,5.42-52.607,26.089-72.353c8.835-8.439,19.018-14.919,30.597-19.054c7.637-1.516,14.978-4.133,22.731-5.356
			c19.26-3.039,38.354-1.83,57.475,0.941c5.745,0.833,11.379,2.062,16.817,4.09C1229.466,381.44,1230.684,381.804,1232.028,381.352z
			"/>
		<path fill-rule="evenodd" clip-rule="evenodd" fill="#2A2A2A" d="M835.153,389.853c-8.347-2.391-16.97-3.12-25.546-3.303
			c-18.156-0.386-36.325-0.122-54.486-0.354c-3.402-0.043-4.047,1.058-4.019,4.205c0.167,18.828,0.258,37.661,0.028,56.488
			c-0.049,3.978,1.291,4.571,4.773,4.541c18.662-0.162,37.326-0.091,55.989-0.12c7.524-0.012,7.524-0.035,7.032,7.839
			c-0.904,1.823-2.48,1.828-4.245,1.764c-20.444-0.746-40.897-0.14-61.346-0.33c-0.821-0.007-1.678-0.104-2.182,0.779
			c0.032,21.977,0.131,43.952,0.019,65.928c-0.016,3.083,0.762,3.955,3.852,3.891c24.289-0.502,48.61,0.918,72.873-1.155
			c4.436-0.38,8.835-1.18,13.252-1.785c2.126,0.275,3.452,0.79,3.534,3.616c0.282,9.729,0.446,9.724-9.139,9.724
			c-36.288,0-72.576,0.003-108.864-0.004c-5.809-0.001-5.921-0.216-4.709-5.993c1.129-5.378,1.607-10.846,1.613-16.326
			c0.042-40.282,0.087-80.566-0.057-120.849c-0.019-5.082,0.238-10.279-1.26-15.28c-0.008-0.361-0.015-0.723-0.021-1.084
			c-0.226-4.256,2.052-5.123,5.893-5.017c14.931,0.413,29.874,0.133,44.803-0.045c19.914-0.237,39.832,0.879,59.737-0.277
			c0.666-0.038,1.317-0.135,1.961,0.122c1.676,0.671,2.476,2.263,1.847,3.604C835.045,383.503,840.59,387.48,835.153,389.853z"/>
		<path fill-rule="evenodd" clip-rule="evenodd" fill="#2B2B2B" d="M1409.131,385.016c1.875,2.304,0.521,5.079,1.841,8.148
			c-10.883-5.187-21.735-6.287-32.652-6.508c-16.817-0.339-33.646-0.171-50.464-0.447c-3.393-0.057-4.065,1.007-4.035,4.203
			c0.176,18.819,0.26,37.644,0.019,56.462c-0.051,3.98,1.258,4.53,4.735,4.502c20.485-0.165,40.973-0.133,61.46-0.067
			c1.248,0.004,2.953-1.146,3.855,0.822c-0.439,0.218-0.827,0.519-1.373,0.516c-22.292-0.151-44.584-0.015-66.876-0.081
			c-0.488-0.001-1.001,0.01-1.243-0.322c1.347,0.802,2.962,0.334,4.488,0.337c19.798,0.039,39.596,0.081,59.394-0.029
			c3.262-0.019,5.044,0.676,4.828,4.367c-0.17,2.905-1.221,4.133-4.283,4.017c-20.948-0.796-41.907-0.147-62.86-0.372
			c-0.692-0.007-1.312,0.063-1.829,0.553c-0.075,22.475-0.131,44.949-0.259,67.423c-0.011,1.89,0.458,2.674,2.476,2.615
			c25.939-0.758,51.954,1.674,77.83-1.844c0.33-0.045,0.669-0.134,0.993-0.103c3.283,0.322,6.999-3.372,9.124-1.243
			c1.617,1.621,0.454,6.014,0.533,9.172c0.033,1.326,0.082,2.652,0.124,3.978c-1.398,0.813-2.933,0.449-4.403,0.449
			c-36.959,0.021-73.919,0.021-110.879,0.014c-5.271-0.001-5.304-0.026-4.583-5.18c0.715-5.112,1.038-10.233,1.031-15.403
			c-0.048-39.956-0.063-79.913,0.009-119.869c0.013-7.003-0.623-13.935-1.345-20.871c-0.479-2.266,0.82-2.971,2.748-3.098
			c1.492-0.098,2.988-0.059,4.482-0.059c30.88-0.002,61.761-0.009,92.641-0.002c1.329,0.001,2.657,0.008,3.985-0.002
			C1407.09,377.029,1407.09,377.028,1409.131,385.016z"/>
		<path fill-rule="evenodd" clip-rule="evenodd" fill="#101210" d="M906.134,377.012c-4.046,2.312-8.432,0.6-12.64,1.039
			c-2.121,0.222-4.284,0.038-6.493,0.038c2.026,10.593,3.076,20.924,3.086,31.343c0.033,33.332-0.061,66.665,0.063,99.997
			c0.035,9.653-0.628,19.236-1.647,28.811c-0.11,1.041-0.384,2.435,0.732,2.51c3.808,0.255,7.643,0.223,11.462,0.123
			c1.016-0.027,0.913-1.03,0.798-1.937c-5.165-40.476-1.116-81.135-2.392-121.689c-0.051-1.638-0.006-3.279,0.939-4.943
			c0,1.837-0.001,3.674,0,5.511c0.018,33.499,0.024,66.998,0.084,100.497c0.004,1.933-0.637,4.023,0.815,5.779
			c0.731,5.08,1.146,10.234,2.312,15.214c0.708,3.029-0.25,3.372-2.742,3.279c-3.991-0.147-7.998-0.31-11.98-0.105
			c-2.552,0.131-2.882-0.97-2.303-2.904c1.641-5.479,1.828-11.122,1.834-16.756c0.043-40.455,0.049-80.91-0.008-121.365
			c-0.012-8.441-0.656-16.834-4.205-25.385C891.609,376.657,898.907,374.932,906.134,377.012z"/>
		<path fill-rule="evenodd" clip-rule="evenodd" fill="#111111" d="M1025.136,541.938c0.415-0.258,0.806-0.686,1.248-0.747
			c7.409-1.034,7.388-1.521,6.283-9.237c-1.028-7.187-1.491-14.51-1.516-21.775c-0.138-39.601-0.021-79.202-0.134-118.804
			c-0.01-3.538,1.009-6.871,1.094-10.36c0.067-2.739-0.35-3.632-3.61-3.136c-7.337,1.115-7.683,0.826-7.335,8.492
			c1.592,35.064,0.719,70.145,0.889,105.218c0.01,1.832,0.979,4.072-1.291,5.434c0.053-2.858,0.106-5.718,0.159-8.577
			c-0.681-5.138-0.278-10.302-0.293-15.451c-0.057-20.486-0.014-40.973-0.039-61.459c-0.002-1.815,0.313-3.666-0.327-5.448
			c-0.761-9.103,0.489-18.292-1.186-27.355c-0.313-1.696-0.138-2.787,2.119-2.678c3.82,0.185,8.439-1.231,11.266,0.46
			c2.933,1.755,0.538,6.567,0.556,10.005c0.219,44.78-0.535,89.566,0.551,134.34c0.154,6.379-0.112,12.886,1.456,19.204
			c0.39,1.573-0.052,2.555-1.982,2.341C1030.419,542.113,1027.73,542.833,1025.136,541.938z"/>
		<path fill-rule="evenodd" clip-rule="evenodd" fill="#0F1010" d="M1295.044,380.104c1.873,5.187,1.867,10.719,1.898,16.017
			c0.248,42.933,0.169,85.867,0.1,128.801c-0.006,3.789-0.104,7.732-1.134,11.324c-1.294,4.516,0.469,4.896,4.226,4.886
			c34.446-0.102,68.894-0.064,103.341-0.063c3.827,0,7.654,0.029,11.481,0.045c-0.261,2.298-1.997,1.22-3.08,1.221
			c-37.796,0.046-75.594-0.029-113.39,0.14c-4.368,0.02-5.669-0.813-4.48-5.311c1.58-5.983,1.111-12.222,1.112-18.369
			c0.008-41.627-0.062-83.254,0.063-124.88c0.014-4.664-1.781-9.146-0.938-13.823
			C1294.519,379.601,1294.785,379.605,1295.044,380.104z"/>
		<path fill-rule="evenodd" clip-rule="evenodd" fill="#020203" d="M722.268,383.128c2.46,0.507,1.779,2.506,1.78,4.023
			c0.034,46.464,0.054,92.928-0.021,139.392c-0.005,2.949-0.652,5.921-1.218,8.841c-1.104,5.7-1.168,5.708,4.854,5.708
			c36.138-0.002,72.276-0.014,108.415-0.021c0.666,0,1.358,0.112,1.993-0.029c2.032-0.452,5.605,1.437,5.732-1.889
			c0.138-3.646,2.67-8.42-2.655-10.912c3.492-2.046,4.237-0.773,4.178,2.896c-0.179,11.158-0.047,11.116-11.292,11.119
			c-36.48,0.009-72.961,0.007-109.44,0.15c-3.924,0.015-5.163-0.397-3.828-4.85c1.904-6.349,2.064-13.089,2.062-19.747
			c-0.019-39.979-0.046-79.956-0.06-119.935c-0.001-1.161,0.106-2.322,0.163-3.483c-0.896-3.396,0.264-6.924-0.667-10.317
			C722.112,383.758,722.113,383.442,722.268,383.128z"/>
		<path fill-rule="evenodd" clip-rule="evenodd" fill="#0D0D0D" d="M1295.044,380.104c-0.267-0.009-0.532-0.013-0.8-0.013
			c-1.822-3.188-0.905-4.092,2.722-4.081c35.768,0.105,71.535,0.106,107.303-0.031c2.938-0.011,4.226,0.767,4.394,3.597
			c0.107,1.816,0.309,3.627,0.469,5.44c-0.078,0.645-0.156,1.289-0.236,1.947c-0.269-0.104-0.668-0.16-0.689-0.281
			c-0.47-2.763-0.208-5.923-1.499-8.209c-1.861-3.295-5.086-0.239-7.669-0.255c-32.882-0.207-65.765-0.168-98.647-0.1
			C1298.513,378.122,1295.837,376.832,1295.044,380.104z"/>
		<path fill-rule="evenodd" clip-rule="evenodd" fill="#0C0C0C" d="M835.153,389.853c1.369-1.761,1.438-10.591,0.093-11.873
			c-0.811-0.773-1.743-0.624-2.773-0.563c-15.736,0.943-31.461,0.36-47.205,0.148c-8.619-0.116-17.387-0.468-26.129,0.283
			c-10.234,0.88-20.608,0.427-30.908,0.11c-3.453-0.106-5.112,1.072-5.984,4.085c-0.376-1.768-0.751-3.534-1.14-5.361
			c1.343-1.117,2.875-0.565,4.259-0.566c35.129-0.032,70.259,0.053,105.387-0.103c4.757-0.021,7.542,0.861,6.347,6.261
			c-0.437,1.972,1.057,3.37,1.234,5.194C838.615,390.363,837.646,390.963,835.153,389.853z"/>
		<path fill-rule="evenodd" clip-rule="evenodd" fill="#070606" d="M1324.135,461.115c0.902-2.015,2.688-0.966,3.997-0.971
			c19.628-0.069,39.257-0.016,58.886-0.04c2.305-0.003,5.086,0.96,5.202-3.261c0.121-4.393-2.646-3.74-5.27-3.741
			c-19.296-0.003-38.592-0.005-57.888-0.007c-1.626,0-3.252,0-4.878,0c0-0.321,0.001-0.644,0.001-0.965c23.234,0,46.47,0,69.704,0
			c0.015,3.138,1.209,7.112-0.267,9.193c-1.704,2.403-5.749,0.127-8.78,0.124C1364.606,461.431,1344.371,461.246,1324.135,461.115z"
			/>
		<path fill-rule="evenodd" clip-rule="evenodd" fill="#101011" d="M1232.028,381.352c-1.762,1.578-3.461,0.377-5.121-0.184
			c-9.81-3.312-20.018-4.073-30.22-5.214c-8.139-0.91-16.237-0.808-24.357-0.809c-12.327-0.002-24.369,1.925-36.124,5.719
			c-1.546,0.499-3.228,2.216-5.054,0.42c17.383-7.232,35.689-8.438,54.152-7.763
			C1201.173,374.102,1216.952,375.777,1232.028,381.352z"/>
		<path fill-rule="evenodd" clip-rule="evenodd" fill="#2C2C2C" d="M1020.264,406.087c0.272,0.758,0.784,1.516,0.783,2.273
			c-0.012,26.695-0.071,53.391-0.124,80.085c-0.784-0.559-0.768-1.39-0.767-2.222
			C1020.193,459.511,1020.228,432.799,1020.264,406.087z"/>
		<path fill-rule="evenodd" clip-rule="evenodd" fill="#030202" d="M751.153,461.362c1.439-2.143,3.651-1.205,5.502-1.212
			c18.821-0.072,37.644-0.042,56.466-0.034c1.992,0,4.015,0.226,5.805-0.967c0.874,3.228-1.319,3.096-3.327,2.92
			C794.134,460.185,772.637,461.426,751.153,461.362z"/>
		<path fill-rule="evenodd" clip-rule="evenodd" fill="#2A2A2A" d="M722.264,384.074c1.461,3.359,1.081,6.837,0.667,10.317
			C722.222,390.984,721.85,387.555,722.264,384.074z"/>
		<path fill-rule="evenodd" clip-rule="evenodd" fill="#F9F8F8" d="M193.329,483.269c10.109-23.985,20.055-47.584,30.526-72.431
			c2.468,5.299,4.553,9.894,6.737,14.44c8.664,18.041,17.366,36.063,26.031,54.104c1.3,2.974,1.367,2.442,1.253,4.489
			c-0.219,0.891-2.118,0.696-3.254,0.697c-19.299,0.017-38.598,0.026-57.896-0.025C195.532,484.54,194.171,484.9,193.329,483.269z"
			/>
		<path fill-rule="evenodd" clip-rule="evenodd" fill="#030303" d="M1322.338,530.051c0-21.56,0-43.12,0-64.68
			c0.116-0.001,0.233-0.001,0.351-0.002c0,21.56,0,43.119,0,64.68C1322.571,530.049,1322.454,530.05,1322.338,530.051z"/>
	</g>
</g>
<g id="Capa_4">
</g>
<g id="Capa_2">
</g>
<g id="Capa_5">
	<g>
		<g>
			<g>
				<path d="M449.901,561.352h-12.759c2.157-1.932,5.775-7.928,10.855-17.98l55.229-113.691h3.048l52.18,111.514
					c2.286,4.48,4.252,8.111,5.904,10.896c1.649,2.789,2.952,4.875,3.904,6.266c0.952,1.395,1.619,2.393,2,2.996h-25.14
					c0.762-3.268-0.189-7.928-2.856-13.982l-13.902-31.055l-61.133,0.908l-13.712,30.328
					C450.473,553.971,449.265,558.566,449.901,561.352z M498.084,448.387l-28.376,63.203l57.133,1.453L498.084,448.387z"/>
				<path d="M810.596,433.131c-9.017,0-16.283,1.787-21.807,5.361c-5.522,3.57-8.284,8.807-8.284,15.709
					c0,5.693,2.41,10.748,7.236,15.164c4.824,4.424,13.204,9.174,25.139,14.26l11.046,4.898
					c22.854,9.93,34.279,22.703,34.279,38.322c0,12.713-4.567,22.037-13.709,27.969c-9.144,5.934-20.697,8.9-34.663,8.9
					c-9.901,0-19.934-2.121-30.09-6.357c-4.445-1.814-8.063-2.725-10.855-2.725l-3.618-20.158l2.095-0.727
					c4.315,8.715,10.346,15.135,18.093,19.25c7.743,4.119,15.932,6.176,24.567,6.176c10.027,0,18.312-2.15,24.853-6.447
					c6.538-4.297,9.807-10.625,9.807-18.979c0-12.469-11.233-23.551-33.708-33.238l-11.617-4.902
					c-11.174-4.842-19.395-10.08-24.662-15.707c-5.269-5.629-7.903-12.078-7.903-19.344c0-9.807,3.809-17.553,11.428-23.246
					c7.617-5.691,18.854-8.539,33.709-8.539c7.108,0,13.36,0.818,18.758,2.455c5.395,1.633,9.647,3.268,12.759,4.902
					c3.11,1.635,5.429,2.451,6.953,2.451l3.428,17.619l-1.905,0.545c-4.189-8.598-9.65-14.713-16.379-18.346
					C828.941,434.887,820.623,433.131,810.596,433.131z"/>
				<path d="M939.907,561.352h-44.375c0.888-26.514,1.334-47.096,1.334-61.75v-7.264c0-19.367-0.446-39.955-1.334-61.75h45.897
					c20.059,0,30.346-0.783,30.853-2.357c1.395,0,2.349,1.088,2.855,3.266l2.288,9.445l-1.526,0.543
					c-2.159-3.021-5.426-4.93-9.808-5.717c-4.381-0.789-12.475-1.182-24.279-1.182h-28.378c-0.762,27.246-1.142,45.588-1.142,55.027
					h7.999c4.694,0,11.046-0.299,19.045-0.908c7.994-0.604,12.631-0.965,13.901-1.09c-0.257,1.215-0.381,2.484-0.381,3.814
					c0,1.699,0.124,2.908,0.381,3.633c-13.714-1.207-24.695-1.816-32.946-1.816h-7.999c0,8.84,0.189,21.432,0.57,37.777
					c0.38,16.346,0.571,25.186,0.571,26.514h26.473c15.615,0,25.834-0.514,30.661-1.541c4.824-1.029,8.631-3.359,11.426-6.992
					l1.143,0.543l-1.713,7.629c-0.129,0.607-0.284,1.242-0.477,1.906c-0.192,0.668-0.319,1.213-0.383,1.635
					c-0.063,0.426-0.16,0.816-0.283,1.182c-0.128,0.361-0.224,0.635-0.288,0.816c-0.063,0.18-0.16,0.363-0.283,0.545
					c-0.128,0.182-0.255,0.303-0.383,0.363c-0.128,0.059-0.316,0.092-0.571,0.092c-1.648-1.213-4.189-1.908-7.616-2.09
					C967.71,561.445,957.299,561.352,939.907,561.352z"/>
				<path d="M1142.918,430.588h8.571c-1.271,18.162-1.905,38.748-1.905,61.75v70.104l-2.285,0.365l-126.073-111.514l-0.191,48.309
					c0,21.555,0.571,42.139,1.713,61.75h-8.379c0.889-20.094,1.526-40.682,1.906-61.75l0.949-70.283h2.669l125.313,110.605
					l-0.192-47.586C1145.014,471.152,1144.315,450.566,1142.918,430.588z"/>
				<path d="M1332.599,443.119l3.81,19.074l-2.097,0.547c-3.937-9.451-10.662-16.984-20.186-22.617
					c-9.521-5.629-21.836-8.443-36.947-8.443c-21.585,0-38.597,5.932-51.038,17.797c-12.445,11.873-18.663,27.246-18.663,46.131
					c0,18.408,5.997,33.572,17.997,45.494c11.997,11.928,29.296,17.893,51.896,17.893c13.584,0,25.391-2.029,35.42-6.088
					c10.029-4.055,17.904-11.531,23.618-22.43l2.093,0.547l-7.427,18.705c-10.028,9.324-28.442,13.986-55.227,13.986
					c-27.043,0-48.504-6.297-64.371-18.889c-15.873-12.592-23.808-28.453-23.808-47.582c0-19.494,8.063-35.988,24.188-49.492
					c16.122-13.5,37.45-20.25,63.99-20.25c8.379,0,16.091,0.816,23.14,2.451c7.044,1.635,12.407,3.424,16.093,5.359
					c3.677,1.938,7.108,3.721,10.283,5.355C1328.534,442.305,1330.946,443.119,1332.599,443.119z"/>
				<path d="M1416.777,561.352h-44.375c0.886-26.514,1.333-47.096,1.333-61.75v-7.264c0-19.367-0.447-39.955-1.333-61.75h45.896
					c20.06,0,30.343-0.783,30.854-2.357c1.394,0,2.348,1.088,2.854,3.266l2.285,9.445l-1.522,0.543
					c-2.16-3.021-5.426-4.93-9.808-5.717c-4.38-0.789-12.476-1.182-24.283-1.182h-28.374c-0.762,27.246-1.142,45.588-1.142,55.027
					h7.998c4.693,0,11.046-0.299,19.042-0.908c7.997-0.604,12.635-0.965,13.904-1.09c-0.256,1.215-0.384,2.484-0.384,3.814
					c0,1.699,0.128,2.908,0.384,3.633c-13.713-1.207-24.695-1.816-32.946-1.816h-7.998c0,8.84,0.187,21.432,0.57,37.777
					c0.381,16.346,0.571,25.186,0.571,26.514h26.474c15.613,0,25.833-0.514,30.661-1.541c4.821-1.029,8.63-3.359,11.425-6.992
					l1.143,0.543l-1.714,7.629c-0.127,0.607-0.286,1.242-0.475,1.906c-0.192,0.668-0.32,1.213-0.383,1.635
					c-0.065,0.426-0.161,0.816-0.285,1.182c-0.127,0.361-0.224,0.635-0.287,0.816c-0.063,0.18-0.159,0.363-0.284,0.545
					c-0.128,0.182-0.259,0.303-0.382,0.363c-0.128,0.059-0.32,0.092-0.572,0.092c-1.649-1.213-4.189-1.908-7.614-2.09
					C1444.578,561.445,1434.168,561.352,1416.777,561.352z"/>
			</g>
			<path fill-rule="evenodd" clip-rule="evenodd" d="M590.916,563.924c20.006-22.039,39.294-44.375,58.5-66.783
				c1.044-1.217,2.254-1.863,0.668-3.924c-14.439-18.752-28.689-37.65-43.043-56.471c-2.108-2.76-4.479-5.316-7.16-8.479
				c9.5,0,18.423,0.043,27.344-0.037c1.674-0.02,1.929,1.229,2.583,2.152c12.05,16.959,24.914,33.307,37.759,50.162
				c12.034-14.035,23.952-27.914,35.835-41.824c2.472-2.893,4.917-5.824,7.164-8.893c0.837-1.141,1.618-1.605,2.976-1.578
				c3.508,0.068,7.018,0.021,11.129,0.021c-8.765,10-17.172,19.527-25.509,29.123c-8.215,9.453-16.327,18.998-24.57,28.422
				c-1.131,1.295-1.661,2.006-0.383,3.654c16.769,21.621,32.961,43.73,52.126,63.348c14.414,14.752,31.321,25.295,51.97,29.273
				c21.561,4.154,42.065,1.785,61.477-8.748c0.531-0.291,1.067-0.566,1.876-0.531c-1.634,4.363-5.124,7.088-8.716,9.527
				c-12.095,8.23-25.603,12.613-40.043,14.549c-33.593,4.496-61.643-6.891-85.517-29.9c-16.753-16.15-29.265-35.766-43.295-54.133
				c-2.227-2.916-4.583-5.775-6.433-8.922c-1.336-2.275-1.965-1.6-3.23-0.121c-13.79,16.154-27.619,32.275-41.444,48.398
				c-1.507,1.76-3.046,3.537-4.513,5.26C603.357,563.48,598.593,565.98,590.916,563.924z"/>
		</g>
		<path fill-rule="evenodd" clip-rule="evenodd" d="M216.678,791.16c6.469-1.861,12.772-3.971,18.958-6.416
			c25.841-10.215,49.276-24.301,68.729-44.271c20.395-20.932,33.481-45.666,37.042-75.068c3.354-27.707-2.634-53.443-15.444-77.938
			c-12.387-23.686-29.869-43.18-49.552-60.869c-20.829-18.719-42.867-36.025-63.804-54.617
			c-16.408-14.57-31.685-30.146-43.69-48.666c-9.064-13.99-15.254-29.111-16.881-45.762c-2.393-24.48,3.5-47.061,16.834-67.674
			c8.685-13.418,19.762-24.609,32.673-34.307c0.183,0.795-0.373,0.986-0.633,1.301c-0.281,0.338-0.643,0.609-0.954,0.926
			c-14.845,15.012-25.408,32.357-29.008,53.463c-2.863,16.781-0.234,32.924,6.087,48.539c8.416,20.783,21.7,38.221,37.454,53.932
			c18.032,17.988,37.935,33.816,57.549,49.977c18.322,15.098,36.544,30.311,52.681,47.809
			c18.477,20.033,32.979,42.486,40.762,68.832c10.445,35.352,6.566,69.258-11.244,101.449c-17.22,31.127-42.985,53.238-74.32,69.326
			c-19.667,10.098-40.585,16.311-62.205,20.426C217.332,791.623,217.08,791.746,216.678,791.16z"/>
		<path fill-rule="evenodd" clip-rule="evenodd" d="M375.536,575.289c-0.214-3.217,2.569-6.432,2.418-9.865
			c2.381-12.986-1.127-24.791-7.684-35.875c-9.03-15.268-22.168-26.461-36.481-36.436c-14.583-10.16-30.062-18.943-44.811-28.844
			c-11.313-7.594-22.194-15.67-30.595-26.674c-16.09-21.078-12.708-48.756,7.759-65.602c13.513-11.117,29.218-16.295,46.168-18.168
			c22.393-2.477,43.635,1.822,63.858,11.744c4.831,2.373,7.169,5.355,7.54,10.971c0.667,10.174,2.339,20.279,3.478,30.426
			c0.108,0.961,1.303,2.631-0.7,3.025c-1.687,0.33-3.245,0.428-4.127-1.959c-3.763-10.17-9.196-19.344-16.7-27.281
			c-17.326-18.332-47.17-24.459-70.373-14.313c-22.736,9.938-28.543,36.395-12.084,55.02c7.928,8.975,17.77,15.502,27.822,21.752
			c15.69,9.75,31.787,18.871,46.824,29.646c12.326,8.83,24.026,18.375,32.55,31.166c10.218,15.334,14.46,31.98,9.958,50.182
			c-3.203,12.947-10.606,23.273-21.189,31.629"/>
		<path fill-rule="evenodd" clip-rule="evenodd" d="M248.864,233.74c-3.38,4.182-6.764,8.34-9.578,12.938
			c-9.843,16.107-9.314,30.908,1.787,46.172c3.134,4.311,6.475,8.471,9.569,12.805c6.053,8.486,9.327,17.705,7.026,28.289
			c-1.374,6.324-5.5,13.047-11.002,17.467c2.271-4.189,3.84-8.021,4.02-12.367c0.294-6.922-1.692-13.078-5.404-18.826
			c-3.84-5.949-9.071-10.693-13.637-16.006c-7.426-8.648-11.883-18.293-10.004-30.041c0.935-5.846,2.884-11.322,5.808-16.473
			C232.859,248.166,240.269,240.438,248.864,233.74z"/>
		<path fill-rule="evenodd" clip-rule="evenodd" d="M240.642,671.516c-12.164-21.791-24.409-43.531-36.528-65.346
			c-1.013-1.824-2.034-2.209-3.958-1.918c-24.844,3.764-49.86,4.756-74.948,4.49c-1.173-0.01-2.327-0.342-2.967,1.381
			c-7.103,19.094-15.08,37.854-21.957,57.037c-0.625,1.748-1.041,3.604-1.465,5.367c-0.587,2.434-1.348,2.719-3.379,2.684
			c-5.827-0.105-11.657-0.033-17.46-0.033c4.677-6.943,8.325-14.904,11.817-22.938c16.97-39.051,33.289-78.375,49.56-117.719
			c6.162-14.898,12.489-29.734,17.971-44.906c0.929-2.576,1.634-5.246,2.209-7.922c0.315-1.457,1.02-1.73,2.338-1.838
			c3.803-0.301,7.611-0.652,11.379-1.232c1.359-0.211,1.824,0.133,2.375,1.27c6.958,14.398,14.448,28.523,22.34,42.426
			c9.588,16.896,20.116,33.057,34.623,46.334c21.06,19.271,45.688,27.328,73.987,24.26c2.141-0.232,2.667,0.086,2.634,2.301
			c0.051,2.195,0.019,4.197,0.029,6.395c0.015,2.471,0.015,2.471-2.217,2.709c-26.022,4.465-53.347-2.082-73.203-16.588
			c16.968,28.656,32.411,58.238,51.973,85.824c-10.423,0-33.856,0.123-44.039,0.131L240.642,671.516z M157.905,522.393
			c-9.916,24.387-19.806,48.789-29.762,73.162c-0.847,2.074,0.203,1.914,1.611,1.896c17.147-0.23,34.265-0.969,51.318-2.863
			c5.161-0.57,10.311-1.232,15.675-1.879c-12.91-23.83-25.609-47.273-38.343-70.779
			C158.122,522.188,157.956,522.266,157.905,522.393z"/>
		<g>
			<path stroke="#000000" stroke-width="0.5" d="M913.495,586.281v1.422h-8.123v21.705h-1.667v-21.705h-8.173v-1.422H913.495z"/>
			<path stroke="#000000" stroke-width="0.5" d="M942.394,608.219c1.11,0,2.104-0.195,2.983-0.584
				c0.876-0.387,1.621-0.922,2.231-1.609c0.609-0.686,1.074-1.494,1.396-2.426c0.32-0.934,0.483-1.939,0.483-3.018v-14.301h1.667
				v14.301c0,1.273-0.202,2.467-0.606,3.574s-0.982,2.066-1.742,2.889c-0.755,0.824-1.677,1.471-2.76,1.939
				c-1.085,0.467-2.302,0.705-3.653,0.705c-1.351,0-2.568-0.238-3.653-0.705c-1.086-0.469-2.004-1.115-2.763-1.939
				c-0.756-0.822-1.338-1.781-1.742-2.889c-0.401-1.107-0.603-2.301-0.603-3.574v-14.301h1.685v14.283
				c0,1.078,0.159,2.088,0.479,3.016c0.323,0.934,0.787,1.742,1.391,2.43c0.607,0.686,1.349,1.223,2.225,1.619
				C940.287,608.023,941.28,608.219,942.394,608.219z"/>
			<path stroke="#000000" stroke-width="0.5" d="M1010.685,586.281v1.391h-12.178v9.723h10.542v1.391h-10.542v10.623h-1.687v-23.127
				H1010.685z"/>
			<path stroke="#000000" stroke-width="0.5" d="M1034.155,609.408h-1.685v-23.127h1.685V609.408z"/>
			<path stroke="#000000" stroke-width="0.5" d="M1060.145,598.947v10.461h-1.665v-23.127h5.897c2.67,0,4.664,0.514,5.985,1.543
				c1.315,1.031,1.975,2.543,1.975,4.537c0,0.883-0.152,1.689-0.459,2.418c-0.304,0.732-0.744,1.369-1.314,1.924
				c-0.571,0.549-1.26,1.002-2.068,1.355c-0.806,0.354-1.718,0.586-2.727,0.695c0.258,0.162,0.491,0.379,0.701,0.652l7.96,10.002
				h-1.456c-0.173,0-0.325-0.031-0.448-0.096c-0.125-0.066-0.25-0.176-0.37-0.328l-7.402-9.383
				c-0.185-0.238-0.382-0.408-0.596-0.506c-0.213-0.098-0.542-0.148-0.99-0.148H1060.145z M1060.145,597.707h4.02
				c1.025,0,1.943-0.123,2.756-0.369c0.809-0.244,1.498-0.596,2.059-1.055c0.56-0.455,0.988-1.006,1.282-1.648
				c0.295-0.645,0.44-1.369,0.44-2.174c0-1.646-0.538-2.867-1.617-3.662c-1.078-0.797-2.646-1.193-4.707-1.193h-4.232V597.707z"/>
			<path stroke="#000000" stroke-width="0.5" d="M1106.5,603.656c0.063-0.174,0.131-0.344,0.202-0.516
				c0.07-0.17,0.152-0.328,0.238-0.482l9.088-16.068c0.089-0.139,0.174-0.227,0.262-0.258c0.09-0.033,0.206-0.051,0.358-0.051h1.163
				v23.127h-1.472v-19.711c0-0.283,0.015-0.582,0.05-0.898l-9.106,16.166c-0.152,0.283-0.368,0.426-0.652,0.426h-0.262
				c-0.273,0-0.491-0.143-0.652-0.426l-9.351-16.184c0.031,0.316,0.05,0.621,0.05,0.916v19.711h-1.455v-23.127h1.143
				c0.152,0,0.276,0.018,0.368,0.051c0.092,0.031,0.182,0.119,0.27,0.258l9.333,16.088
				C1106.237,602.982,1106.379,603.309,1106.5,603.656z"/>
			<path stroke="#000000" stroke-width="0.5" d="M1158.426,609.408h-1.29c-0.152,0-0.277-0.039-0.377-0.119
				c-0.096-0.084-0.173-0.189-0.228-0.32l-2.73-6.717h-11.356l-2.715,6.717c-0.046,0.121-0.121,0.225-0.231,0.309
				c-0.106,0.088-0.237,0.131-0.39,0.131h-1.275l9.462-23.127h1.668L1158.426,609.408z M1142.951,601.008h10.36l-4.725-11.686
				c-0.073-0.186-0.153-0.395-0.227-0.629c-0.079-0.234-0.152-0.482-0.231-0.744c-0.073,0.262-0.151,0.51-0.229,0.744
				c-0.075,0.234-0.152,0.447-0.229,0.645L1142.951,601.008z"/>
			<path stroke="#000000" stroke-width="0.5" d="M1221.715,597.84c0,1.785-0.267,3.406-0.803,4.863
				c-0.532,1.453-1.282,2.693-2.251,3.721c-0.973,1.033-2.133,1.828-3.483,2.389c-1.352,0.561-2.849,0.842-4.495,0.842
				c-1.624,0-3.109-0.281-4.463-0.842c-1.351-0.561-2.51-1.355-3.482-2.389c-0.968-1.027-1.725-2.268-2.263-3.721
				c-0.54-1.457-0.809-3.078-0.809-4.863c0-1.779,0.269-3.393,0.809-4.846c0.538-1.459,1.295-2.701,2.263-3.73
				c0.973-1.027,2.132-1.826,3.482-2.393c1.354-0.568,2.839-0.854,4.463-0.854c1.646,0,3.144,0.281,4.495,0.846
				c1.351,0.561,2.511,1.359,3.483,2.393c0.969,1.033,1.719,2.279,2.251,3.738C1221.448,594.447,1221.715,596.061,1221.715,597.84z
				 M1219.984,597.84c0-1.617-0.224-3.063-0.671-4.352c-0.447-1.283-1.077-2.375-1.888-3.27c-0.812-0.891-1.792-1.574-2.936-2.051
				c-1.144-0.471-2.412-0.709-3.808-0.709c-1.373,0-2.628,0.238-3.766,0.709c-1.14,0.477-2.123,1.16-2.945,2.051
				c-0.822,0.895-1.458,1.986-1.912,3.27c-0.45,1.289-0.677,2.734-0.677,4.352c0,1.623,0.227,3.072,0.677,4.354
				c0.454,1.281,1.09,2.367,1.912,3.26c0.822,0.895,1.806,1.576,2.945,2.043c1.138,0.471,2.393,0.703,3.766,0.703
				c1.396,0,2.664-0.232,3.808-0.703c1.144-0.467,2.124-1.148,2.936-2.043c0.811-0.893,1.44-1.979,1.888-3.26
				S1219.984,599.463,1219.984,597.84z"/>
			<path stroke="#000000" stroke-width="0.5" d="M1245.172,607.986h10.968v1.422h-12.635v-23.127h1.667V607.986z"/>
			<path stroke="#000000" stroke-width="0.5" d="M1290.43,586.281v1.391h-12.177v9.723h10.542v1.391h-10.542v10.623h-1.684v-23.127
				H1290.43z"/>
			<path stroke="#000000" stroke-width="0.5" d="M1327.143,609.408h-1.29c-0.152,0-0.276-0.039-0.377-0.119
				c-0.099-0.084-0.173-0.189-0.229-0.32l-2.729-6.717h-11.36l-2.713,6.717c-0.043,0.121-0.117,0.225-0.229,0.309
				c-0.109,0.088-0.241,0.131-0.395,0.131h-1.272l9.464-23.127h1.667L1327.143,609.408z M1311.663,601.008h10.365l-4.725-11.686
				c-0.078-0.186-0.153-0.395-0.231-0.629c-0.074-0.234-0.152-0.482-0.227-0.744c-0.078,0.262-0.151,0.51-0.231,0.744
				c-0.072,0.234-0.152,0.447-0.226,0.645L1311.663,601.008z"/>
			<path stroke="#000000" stroke-width="0.5" d="M1360.372,586.281v1.422h-8.122v21.705h-1.666v-21.705h-8.174v-1.422H1360.372z"/>
			<path stroke="#000000" stroke-width="0.5" d="M1383.011,609.408h-1.685v-23.127h1.685V609.408z"/>
			<path stroke="#000000" stroke-width="0.5" d="M1403.65,586.281h1.327c0.154,0,0.277,0.039,0.377,0.121
				c0.096,0.084,0.173,0.188,0.228,0.318l7.878,19.191c0.205,0.498,0.376,1.035,0.507,1.604c0.12-0.59,0.276-1.127,0.475-1.604
				l7.861-19.191c0.054-0.117,0.135-0.223,0.237-0.309c0.104-0.088,0.231-0.131,0.385-0.131h1.308l-9.546,23.127h-1.489
				L1403.65,586.281z"/>
			<path stroke="#000000" stroke-width="0.5" d="M1460.108,609.408h-1.29c-0.153,0-0.276-0.039-0.378-0.119
				c-0.094-0.084-0.172-0.189-0.226-0.32l-2.732-6.717h-11.358l-2.713,6.717c-0.043,0.121-0.121,0.225-0.23,0.309
				c-0.106,0.088-0.237,0.131-0.392,0.131h-1.275l9.463-23.127h1.667L1460.108,609.408z M1444.633,601.008h10.361l-4.725-11.686
				c-0.075-0.186-0.153-0.395-0.228-0.629c-0.079-0.234-0.152-0.482-0.232-0.744c-0.072,0.262-0.152,0.51-0.226,0.744
				c-0.078,0.234-0.152,0.447-0.23,0.645L1444.633,601.008z"/>
		</g>
	</g>
</g>
<g id="Capa_7">
</g>
</svg>
